<svg width="18" height="19" viewBox="0 0 18 19" fill="none" xmlns="http://www.w3.org/2000/svg">
<g clip-path="url(#clip0)">
<path d="M4.18637 12.4124C3.98739 12.459 3.78091 12.4844 3.56882 12.4844C2.63232 12.4844 1.79993 12.0052 1.27979 11.2671C0.498516 11.9505 0 12.9821 0 14.1343V15.146H3.93926V14.0785C3.93926 13.4975 4.02613 12.9378 4.18637 12.4124Z" fill="#BABABA"/>
<path d="M3.56878 11.4082C4.58054 11.4082 5.40074 10.5425 5.40074 9.4745C5.40074 8.40653 4.58054 7.54077 3.56878 7.54077C2.55701 7.54077 1.73682 8.40653 1.73682 9.4745C1.73682 10.5425 2.55701 11.4082 3.56878 11.4082Z" fill="#BABABA"/>
<path d="M14.6108 12.4845C14.4074 12.4845 14.209 12.4615 14.0176 12.4185C14.1766 12.9421 14.2629 13.4999 14.2629 14.0785V15.1461H18.0001V14.1344C18.0001 13.0358 17.5468 12.047 16.8275 11.365C16.3043 12.0472 15.5052 12.4845 14.6108 12.4845Z" fill="#BABABA"/>
<path d="M10.6785 10.0359C10.2127 10.3162 9.67417 10.4765 9.10074 10.4765C8.52731 10.4765 7.98875 10.3161 7.52296 10.0359C6.0193 10.6922 4.9585 12.2569 4.9585 14.0784V15.1459H13.243V14.0784C13.2429 12.2569 12.1821 10.6922 10.6785 10.0359Z" fill="#696969"/>
<path d="M10.6381 8.72706C11.4881 7.82986 11.4881 6.37522 10.6381 5.47802C9.7881 4.58082 8.41001 4.58082 7.56003 5.47802C6.71004 6.37522 6.71004 7.82986 7.56003 8.72706C8.41001 9.62426 9.7881 9.62426 10.6381 8.72706Z" fill="#696969"/>
<path d="M14.6108 11.4082C15.6225 11.4082 16.4427 10.5425 16.4427 9.4745C16.4427 8.40653 15.6225 7.54077 14.6108 7.54077C13.599 7.54077 12.7788 8.40653 12.7788 9.4745C12.7788 10.5425 13.599 11.4082 14.6108 11.4082Z" fill="#BABABA"/>
</g>
<defs>
<clipPath id="clip0">
<rect width="18" height="19" fill="white"/>
</clipPath>
</defs>
</svg>
