<svg width="17" height="17" viewBox="0 0 17 17" fill="none" xmlns="http://www.w3.org/2000/svg">
<g clip-path="url(#clip0)">
<path d="M0.919662 10.8184H2.25795H3.59621L4.51587 13.1174H3.33786e-05L0.919662 10.8184Z" fill="#89A1DD"/>
<path d="M7.16177 10.8184H8.50002H9.83831L10.7579 13.1174H6.24214L7.16177 10.8184Z" fill="#89A1DD"/>
<path d="M7.16177 3.88257H9.83831L10.7579 6.18162H9.88718H7.1129H6.24214L7.16177 3.88257Z" fill="#12399D"/>
<path d="M13.4038 10.8184H14.7421H16.0804L17 13.1174H12.4842L13.4038 10.8184Z" fill="#89A1DD"/>
<path d="M4.04068 7.35059H5.37893H6.71718L7.63684 9.64967H6.76606H3.9918H3.12102L4.04068 7.35059Z" fill="#12399D"/>
<path d="M10.2828 7.35059H11.621H12.9593L13.8789 9.64967H13.0082H10.2339H9.36312L10.2828 7.35059Z" fill="#12399D"/>
</g>
<defs>
<clipPath id="clip0">
<rect width="17" height="17" fill="white" transform="matrix(-1 0 0 1 17 0)"/>
</clipPath>
</defs>
</svg>
