<svg width="19" height="19" viewBox="0 0 19 19" fill="none" xmlns="http://www.w3.org/2000/svg">
<g clip-path="url(#clip0)">
<path d="M1.85547 15.623C1.85547 15.9305 2.1047 16.1797 2.41211 16.1797C2.71952 16.1797 2.96875 15.9305 2.96875 15.623V13.9531H1.85547V15.623Z" fill="#BABABA"/>
<path d="M10.4502 7.622C10.2329 7.40465 9.88041 7.40465 9.66302 7.622C9.44564 7.83935 9.44564 8.19181 9.66302 8.4092L10.1972 8.94332H6.3457C6.03829 8.94332 5.78906 9.19254 5.78906 9.49996C5.78906 9.80737 6.03829 10.0566 6.3457 10.0566H10.1972L9.66306 10.5908C9.44567 10.8081 9.44567 11.1606 9.66306 11.378C9.77172 11.4866 9.91418 11.541 10.0566 11.541C10.1991 11.541 10.3416 11.4866 10.4502 11.3779L11.9346 9.89354C12.152 9.67619 12.152 9.32372 11.9346 9.10634L10.4502 7.622Z" fill="#696969"/>
<path d="M14.918 14.5469H17.1445V15.6602H14.918V14.5469Z" fill="#696969"/>
<path d="M14.918 17.8867C14.918 18.5016 15.4164 19 16.0312 19C16.6461 19 17.1445 18.5016 17.1445 17.8867V16.7734H14.918V17.8867Z" fill="#696969"/>
<path d="M18.0723 12.3203H13.9902C13.6828 12.3203 13.4336 12.5695 13.4336 12.877C13.4336 13.1844 13.6828 13.4336 13.9902 13.4336H18.0723C18.3797 13.4336 18.6289 13.1844 18.6289 12.877C18.6289 12.5695 18.3797 12.3203 18.0723 12.3203Z" fill="#696969"/>
<path d="M18.8796 3.25382L16.4675 0.210855C16.3619 0.0776699 16.2012 0 16.0313 0C15.8613 0 15.7006 0.0776699 15.595 0.210855L13.1829 3.25382C13.0907 3.3702 13.0488 3.51856 13.0665 3.66592L13.9714 11.207H15.4746V6.93945C15.4746 6.63204 15.7238 6.38281 16.0313 6.38281C16.3387 6.38281 16.5879 6.63204 16.5879 6.93945V11.207H18.0911L18.9961 3.66592C19.0137 3.51853 18.9718 3.37016 18.8796 3.25382Z" fill="#696969"/>
<path d="M0.786646 10.6133H4.03758L4.4512 5.64975C4.46162 5.52447 4.42938 5.39934 4.35965 5.29477L2.87527 3.0682C2.77203 2.91335 2.59821 2.82031 2.41211 2.82031C2.22601 2.82031 2.05219 2.91335 1.94895 3.0682L0.464574 5.29477C0.394845 5.39934 0.36256 5.52447 0.373025 5.64975L0.786646 10.6133Z" fill="#BABABA"/>
<path d="M4.26758 11.7266H0.556641C0.249227 11.7266 0 11.9758 0 12.2832C0 12.5906 0.249227 12.8398 0.556641 12.8398H4.26758C4.57499 12.8398 4.82422 12.5906 4.82422 12.2832C4.82422 11.9758 4.57499 11.7266 4.26758 11.7266Z" fill="#BABABA"/>
</g>
<defs>
<clipPath id="clip0">
<rect width="19" height="19" fill="white"/>
</clipPath>
</defs>
</svg>
