<svg width="142" height="35" viewBox="0 0 142 35" fill="none" xmlns="http://www.w3.org/2000/svg">
<rect x="6.24866" y="0.534668" width="3.91778" height="31.3422" rx="1.95889" transform="rotate(11.5 6.24866 0.534668)" fill="#F23F74"/>
<rect x="39.7743" y="0.435547" width="3.91778" height="20.4595" rx="1.95889" transform="rotate(11.5 39.7743 0.435547)" fill="#0B98FF"/>
<rect x="11.4792" y="11.3081" width="3.91778" height="20.4595" rx="1.95889" transform="rotate(11.5 11.4792 11.3081)" fill="#F23F74"/>
<rect x="22.2853" y="0.000244141" width="3.91778" height="10.9892" rx="1.95889" transform="rotate(42.9291 22.2853 0.000244141)" fill="#F23F74"/>
<rect width="3.91778" height="10.9892" rx="1.95889" transform="matrix(-0.921552 0.388255 0.388255 0.921552 23.6613 0.00585938)" fill="#F23F74"/>
<rect x="28.714" y="32.5491" width="3.91778" height="10.9892" rx="1.95889" transform="rotate(-137.071 28.714 32.5491)" fill="#0B98FF"/>
<rect width="3.91778" height="10.9892" rx="1.95889" transform="matrix(0.921552 -0.388255 -0.388255 -0.921552 27.338 32.5435)" fill="#0B98FF"/>
<rect x="21.0057" y="0.530273" width="3.91778" height="31.4335" rx="1.95889" transform="rotate(11.5 21.0057 0.530273)" fill="#F23F74"/>
<rect x="32.3239" y="0.530273" width="3.91778" height="31.5384" rx="1.95889" transform="rotate(11.5 32.3239 0.530273)" fill="#0B98FF"/>
<path d="M91.8018 14.7359C91.8018 15.3254 91.5181 15.6533 90.9507 15.7196C90.7444 15.7417 90.4828 15.6754 90.166 15.5207C89.8491 15.3586 89.5286 15.2775 89.2044 15.2775C88.5633 15.2775 88.0549 15.4433 87.6791 15.7749C87.3033 16.0991 87.0344 16.5375 86.8723 17.0902C86.7102 17.6428 86.6291 18.2618 86.6291 18.947V24.6502C86.6291 24.9745 86.5296 25.2324 86.3307 25.4239C86.1391 25.6155 85.8701 25.7113 85.5238 25.7113C85.1849 25.7113 84.9159 25.6155 84.717 25.4239C84.518 25.2324 84.4186 24.9708 84.4186 24.6392V14.4596C84.4186 14.128 84.4996 13.8554 84.6617 13.6417C84.8312 13.428 85.0596 13.3212 85.347 13.3212C85.5165 13.3212 85.7117 13.3949 85.9328 13.5422C86.1612 13.6822 86.3196 13.9254 86.408 14.2717L86.5186 15.0675C86.6144 14.8612 86.7986 14.6217 87.0712 14.3491C87.3438 14.0764 87.6681 13.8406 88.0439 13.6417C88.4196 13.4354 88.8102 13.3322 89.2154 13.3322C89.967 13.3322 90.586 13.4206 91.0723 13.5975C91.5586 13.767 91.8018 14.1464 91.8018 14.7359ZM97.9582 13.3764C98.9382 13.3764 99.8372 13.6196 100.655 14.1059C101.473 14.5922 102.129 15.248 102.622 16.0733C103.124 16.8912 103.374 17.8012 103.374 18.8033C103.374 19.0097 103.363 19.2197 103.341 19.4333C103.311 19.706 103.186 19.9381 102.965 20.1297C102.751 20.3139 102.508 20.406 102.236 20.406L94.5097 20.417C94.635 20.9476 94.8708 21.4449 95.2171 21.9092C95.5634 22.3734 95.9834 22.7492 96.4771 23.0365C96.9782 23.3239 97.5234 23.4676 98.1129 23.4676C98.7466 23.4676 99.314 23.3129 99.815 23.0034C100.316 22.6939 100.707 22.3365 100.987 21.9313C101.075 21.7913 101.208 21.6734 101.385 21.5776C101.569 21.4818 101.742 21.4339 101.904 21.4339C102.206 21.4339 102.464 21.5444 102.678 21.7655C102.899 21.9865 103.009 22.2481 103.009 22.5502C103.009 22.786 102.943 22.996 102.81 23.1802C102.353 23.8508 101.723 24.4329 100.92 24.9266C100.125 25.4129 99.1998 25.656 98.1461 25.656C97.2987 25.656 96.5103 25.4903 95.7808 25.1587C95.0587 24.8271 94.4287 24.3739 93.8908 23.7992C93.3529 23.2244 92.9329 22.565 92.6308 21.8207C92.336 21.0692 92.1886 20.277 92.1886 19.4444C92.1886 18.6412 92.336 17.8786 92.6308 17.1565C92.9255 16.427 93.3344 15.7786 93.8576 15.2112C94.3881 14.6438 95.0034 14.198 95.7034 13.8738C96.4034 13.5422 97.155 13.3764 97.9582 13.3764ZM101.097 18.1954C100.957 17.4733 100.596 16.8581 100.014 16.3496C99.4319 15.8412 98.7466 15.587 97.9582 15.587C97.155 15.587 96.444 15.8486 95.825 16.3717C95.2134 16.8949 94.8008 17.5065 94.5871 18.2065L101.097 18.1954Z" fill="#F23F74"/>
<path d="M105.994 25.6118C105.691 25.6118 105.43 25.5087 105.209 25.3024C104.995 25.0887 104.888 24.8345 104.888 24.5397V24.5287L104.866 10.6796C104.866 10.4806 104.958 10.2559 105.142 10.0053C105.334 9.74744 105.607 9.61481 105.96 9.60744L109.442 9.58533C110.518 9.58533 111.494 9.76218 112.371 10.1159C113.255 10.4622 113.955 10.989 114.471 11.6964C114.994 12.4038 115.256 13.3027 115.256 14.3933C115.256 15.6386 114.983 16.6407 114.438 17.3996C113.893 18.1586 113.145 18.7149 112.194 19.0686C111.251 19.4223 110.175 19.6176 108.967 19.6544L107.088 19.6986L107.099 24.5508V24.5618C107.099 24.8566 106.988 25.1071 106.767 25.3134C106.554 25.5124 106.296 25.6118 105.994 25.6118ZM113.045 14.4043C113.045 13.4833 112.717 12.8201 112.062 12.4148C111.413 12.0096 110.514 11.8069 109.365 11.8069H107.077L107.088 17.466L108.934 17.4217C110.23 17.3923 111.24 17.1712 111.962 16.7586C112.684 16.3459 113.045 15.5612 113.045 14.4043ZM122.75 13.288C123.295 13.288 123.825 13.3985 124.341 13.6196C124.864 13.8333 125.328 14.1059 125.734 14.4375C126.146 14.7617 126.452 15.097 126.651 15.4433L126.773 14.3822C126.773 14.0801 126.861 13.8222 127.038 13.6085C127.215 13.3875 127.454 13.277 127.756 13.277C128.059 13.277 128.316 13.3875 128.53 13.6085C128.751 13.8222 128.862 14.0801 128.862 14.3822V14.4043L128.84 24.6392C128.84 24.9413 128.729 25.2029 128.508 25.4239C128.294 25.6376 128.036 25.7445 127.734 25.7445C127.432 25.7445 127.193 25.6376 127.016 25.4239C126.839 25.2029 126.751 24.9413 126.751 24.6392L126.629 23.755C126.246 24.4108 125.686 24.9008 124.949 25.225C124.212 25.5418 123.472 25.7003 122.727 25.7003C121.895 25.7003 121.114 25.5382 120.384 25.2139C119.655 24.8824 119.014 24.4292 118.461 23.8544C117.908 23.2797 117.474 22.6202 117.157 21.876C116.847 21.1318 116.693 20.347 116.693 19.5218C116.693 18.7039 116.844 17.9228 117.146 17.1786C117.455 16.427 117.883 15.7601 118.428 15.178C118.981 14.5886 119.622 14.128 120.351 13.7964C121.088 13.4575 121.887 13.288 122.75 13.288ZM126.563 19.4997C126.563 18.7775 126.393 18.1144 126.054 17.5102C125.723 16.9059 125.27 16.4196 124.695 16.0512C124.12 15.6828 123.464 15.4986 122.727 15.4986C122.005 15.4986 121.353 15.6828 120.771 16.0512C120.189 16.4196 119.728 16.9096 119.389 17.5212C119.051 18.1254 118.881 18.7812 118.881 19.4886C118.881 20.2034 119.054 20.8665 119.401 21.4781C119.747 22.0823 120.211 22.5686 120.793 22.9371C121.383 23.3055 122.031 23.4897 122.738 23.4897C123.446 23.4897 124.087 23.3055 124.662 22.9371C125.244 22.5686 125.704 22.0823 126.043 21.4781C126.39 20.8665 126.563 20.207 126.563 19.4997ZM131.349 13.277C131.562 13.277 131.761 13.3396 131.945 13.4649C132.137 13.5901 132.273 13.7449 132.354 13.9291L136.112 22.4729L139.329 14.0064C139.41 13.8075 139.542 13.6417 139.727 13.5091C139.918 13.3764 140.128 13.3101 140.357 13.3101C140.659 13.3101 140.917 13.4206 141.13 13.6417C141.351 13.8554 141.462 14.1133 141.462 14.4154C141.462 14.5701 141.432 14.7138 141.373 14.8464L137.306 25.4571C137.291 25.5529 137.265 25.6376 137.229 25.7113C137.192 25.785 137.155 25.8513 137.118 25.9103L136.499 27.4576C136.344 27.8408 136.16 28.2461 135.947 28.6735C135.733 29.1082 135.438 29.5171 135.062 29.9003C134.701 30.2761 134.259 30.5929 133.736 30.8508C133.22 31.1087 132.679 31.2377 132.111 31.2377C131.802 31.2377 131.54 31.1235 131.326 30.8951C131.113 30.674 131.006 30.4124 131.006 30.1103C131.006 29.8156 131.105 29.5577 131.304 29.3366C131.511 29.1229 131.758 29.0124 132.045 29.005C132.693 28.9608 133.194 28.7066 133.548 28.2424C133.902 27.7855 134.204 27.244 134.454 26.6176L134.985 25.2692L130.343 14.8575C130.276 14.7028 130.243 14.5443 130.243 14.3822C130.243 14.0801 130.35 13.8222 130.564 13.6085C130.785 13.3875 131.046 13.277 131.349 13.277Z" fill="#0B98FF"/>
<path d="M55.4313 25.446C55.1292 25.446 54.8676 25.3392 54.6466 25.1255C54.4329 24.9045 54.3261 24.6429 54.3261 24.3408L54.2929 10.6243C54.2855 10.558 54.2818 10.4917 54.2818 10.4253C54.2818 10.3222 54.3039 10.2227 54.3482 10.1269C54.3997 10.0311 54.4587 9.93165 54.525 9.82849C54.7018 9.54112 54.9561 9.39744 55.2876 9.39744C55.8182 9.39744 56.1829 9.60376 56.3819 10.0164L62.2951 19.6655L67.7662 10.0053C67.9873 9.63691 68.2857 9.4527 68.6615 9.4527C68.9783 9.4527 69.2546 9.55586 69.4904 9.76218C69.7262 9.9685 69.8441 10.2338 69.8441 10.558V24.385C69.8441 24.6871 69.7336 24.9487 69.5125 25.1697C69.2989 25.3834 69.041 25.4903 68.7389 25.4903C68.4367 25.4903 68.1752 25.3834 67.9541 25.1697C67.7404 24.9487 67.6336 24.6871 67.6336 24.385V14.5038L63.2898 22.3955C63.2088 22.5281 63.0835 22.6571 62.914 22.7823C62.7446 22.9002 62.5604 22.9592 62.3614 22.9592C61.934 22.9592 61.6061 22.7823 61.3777 22.4286L56.5034 14.4596L56.5366 24.3297V24.3408C56.5366 24.6429 56.4261 24.9045 56.205 25.1255C55.9913 25.3392 55.7334 25.446 55.4313 25.446Z" fill="#F23F74"/>
<path d="M83.1755 19.0022C83.1755 22.4281 80.3982 25.2054 76.9723 25.2054C75.1663 25.2054 73.5406 24.4336 72.407 23.2019C72.1093 22.8786 71.8457 22.5233 71.6214 22.1423C71.0798 21.2212 70.7692 20.1479 70.7692 19.0022C70.7692 15.5763 73.5464 12.7991 76.9723 12.7991C78.1183 12.7991 79.1915 13.1097 80.1124 13.6516C80.4934 13.8756 80.8484 14.1392 81.1717 14.4372C82.4035 15.5702 83.1755 17.1962 83.1755 19.0022Z" fill="#FFDE50"/>
<path d="M83.1756 19.0021C83.1756 22.3508 80.5224 25.0796 77.2033 25.2009C73.8843 25.0796 71.2311 22.3508 71.2311 19.0021C71.2311 15.6534 73.8843 12.9245 77.2033 12.8032C80.5224 12.9245 83.1756 15.6534 83.1756 19.0021Z" fill="#FFDE50"/>
<path d="M81.1718 14.4373L72.4071 23.2019C72.1094 22.8786 71.8458 22.5234 71.6215 22.1423L80.1124 13.6516C80.4935 13.8757 80.8485 14.1393 81.1718 14.4373Z" fill="#FFDE50"/>
<path d="M82.7475 16.7344L74.7042 24.7777C74.1348 24.5539 73.6064 24.2483 73.1337 23.8753L81.8454 15.1636C82.2184 15.6363 82.524 16.1647 82.7475 16.7344Z" fill="#FFDE50"/>
<path d="M81.7926 19.0024C81.7926 21.6644 79.6344 23.8226 76.9723 23.8226C76.0451 23.8226 75.1792 23.5608 74.4442 23.1071C74.1239 22.9096 73.8287 22.6754 73.5639 22.4105C73.3692 22.2161 73.1909 22.0047 73.0317 21.7791C72.8124 21.4684 72.6289 21.1307 72.4873 20.7719C72.2777 20.2415 72.1597 19.6647 72.1526 19.0616C72.1521 19.0419 72.1521 19.0221 72.1521 19.0024C72.1521 16.3403 74.31 14.1821 76.9723 14.1821C76.9921 14.1821 77.0121 14.1821 77.0318 14.1826C77.6349 14.1897 78.2114 14.308 78.7419 14.5174C79.1006 14.6591 79.4384 14.8424 79.7491 15.0617C79.9747 15.2212 80.1858 15.3992 80.3805 15.5939C80.6453 15.8585 80.8795 16.154 81.077 16.4743C81.5308 17.2093 81.7926 18.0752 81.7926 19.0024Z" fill="#FFBD00"/>
<path d="M80.3805 15.5939L73.5639 22.4105C73.3692 22.2161 73.1909 22.0047 73.0317 21.7791C72.8124 21.4684 72.6289 21.1307 72.4873 20.7719C72.2777 20.2415 72.1597 19.6647 72.1526 19.0616C72.1521 19.0419 72.1521 19.0221 72.1521 19.0024C72.1521 16.3403 74.31 14.1821 76.9723 14.1821C76.9921 14.1821 77.0121 14.1821 77.0318 14.1826C77.6349 14.1897 78.2114 14.308 78.7419 14.5174C79.1006 14.6591 79.4384 14.8424 79.7491 15.0617C79.9747 15.2212 80.1858 15.3992 80.3805 15.5939Z" fill="#FFBD00"/>
<path d="M81.7925 19.0024C81.7925 21.6644 79.6343 23.8226 76.9723 23.8226C76.8809 23.8226 76.7902 23.82 76.7001 23.815C79.2355 23.674 81.2479 21.573 81.2479 19.0024C81.2479 16.4317 79.2355 14.3308 76.7001 14.1897C76.7902 14.1847 76.8809 14.1821 76.9723 14.1821C79.6343 14.1821 81.7925 16.3403 81.7925 19.0024Z" fill="#F68E00"/>
</svg>
