<svg width="19" height="19" viewBox="0 0 19 19" fill="none" xmlns="http://www.w3.org/2000/svg">
<g clip-path="url(#clip0)">
<path d="M7.06421 3.68623V10.3959L9.02671 7.03168C9.1249 6.86331 9.30518 6.75974 9.50011 6.75974H11.936V2.49316L7.06421 3.68623Z" fill="#BABABA"/>
<path d="M18.5823 3.85237L13.0321 2.49316V7.11191L16.3364 11.1443H19V4.3847C19 4.13225 18.8276 3.91241 18.5823 3.85237Z" fill="#696969"/>
<path d="M9.81479 7.85596L7.06409 12.5714V16.5071L11.9359 15.3141V7.85596H9.81479Z" fill="#BABABA"/>
<path d="M2.69336 9.31738H0V14.6154C0 14.8679 0.172447 15.0877 0.417703 15.1478L5.96793 16.507V12.6475L2.69336 9.31738Z" fill="#696969"/>
<path d="M0.678434 2.39073C0.515004 2.35069 0.342186 2.38803 0.209705 2.49189C0.0773359 2.59576 0 2.75474 0 2.92307V8.22113H2.92307C3.07002 8.22113 3.21081 8.28013 3.31383 8.38489L5.96793 11.084V3.68607L0.678434 2.39073Z" fill="#696969"/>
<path d="M16.077 12.2404C15.9127 12.2404 15.7572 12.1668 15.653 12.0398L13.0321 8.84131V15.314L18.3216 16.6094C18.3648 16.62 18.4085 16.6251 18.452 16.6251C18.5734 16.6251 18.6928 16.5848 18.7903 16.5082C18.9227 16.4043 19.0001 16.2454 19.0001 16.0771V12.2404H16.077Z" fill="#696969"/>
</g>
<defs>
<clipPath id="clip0">
<rect width="19" height="19" fill="white"/>
</clipPath>
</defs>
</svg>
