<svg width="19" height="19" viewBox="0 0 19 19" fill="none" xmlns="http://www.w3.org/2000/svg">
<g clip-path="url(#clip0)">
<path d="M18.478 0.36992C17.8844 0.131963 17.2365 0.000612221 16.5579 2.17329e-06C13.7068 -0.00262866 11.3743 2.38361 11.3743 5.23474V7.87087L10.1257 10.2272C10.0572 10.3564 10.0214 10.5005 10.0214 10.6468V10.8412C10.0214 11.1975 10.2324 11.52 10.559 11.6626L11.5707 12.1043V13.9161C11.5707 14.8134 12.3248 15.5264 13.2207 15.4761L15.8508 15.3286C16.1098 15.3141 16.3278 15.5202 16.3278 15.7796V18.5861C16.3278 18.8147 16.5131 19 16.7417 19H18.5544C18.783 19 18.9683 18.8147 18.9683 18.5861V1.10095C18.9683 0.780405 18.7756 0.489184 18.478 0.36992Z" fill="#696969"/>
<path d="M17.6804 18.9998H16.7418C16.5132 18.9998 16.3279 18.8145 16.3279 18.5859V15.7794C16.3279 15.5199 16.1099 15.3138 15.8508 15.3283L13.2207 15.4759C12.3248 15.5261 11.5707 14.8132 11.5707 13.9158V12.104L10.559 11.6623C10.2324 11.5197 10.0214 11.1973 10.0214 10.841V10.6466C10.0214 10.5003 10.0572 10.3562 10.1257 10.2269L11.3743 7.87068V5.23455C11.3743 3.08326 12.7025 1.1963 14.5793 0.400879C13.4485 1.36799 12.7267 2.81011 12.7267 4.39566V7.03179L11.4782 9.38809C11.4097 9.51735 11.3738 9.66144 11.3738 9.80773V10.0021C11.3738 10.3585 11.5849 10.6809 11.9114 10.8235L12.4254 11.0479C12.7278 11.1799 12.9232 11.4785 12.9232 11.8084V13.077C12.9232 13.9744 13.6773 14.6873 14.5732 14.6371L16.7684 14.5328C17.2649 14.5093 17.6803 14.9054 17.6803 15.4025V18.9998H17.6804Z" fill="#696969"/>
<path d="M2.6723 18.5809V15.7796C2.6723 15.5202 2.89031 15.314 3.14935 15.3286L5.77942 15.4761C6.67535 15.5264 7.42945 14.8134 7.42945 13.9161V12.1043L8.44117 11.6626C8.7677 11.52 8.97878 11.1975 8.97878 10.8412V10.6468C8.97878 10.5005 8.94298 10.3564 8.87446 10.2272L7.62588 7.87087V5.23474C7.62592 2.38361 5.2934 -0.00262866 2.44227 2.17329e-06C1.6788 0.000688476 0.954176 0.16685 0.301883 0.46421C0.136865 0.539437 0.0318604 0.705179 0.0318604 0.886553V18.5809C0.0318604 18.8123 0.219488 19 0.450963 19H2.25316C2.48467 19 2.6723 18.8123 2.6723 18.5809Z" fill="#BABABA"/>
<path d="M1.67537 2.79124C1.67537 1.94602 2.27192 1.21464 3.10173 1.05405C3.42029 0.992397 3.74926 0.95995 4.08582 0.959645C4.68183 0.959073 5.25554 1.06328 5.78964 1.25392C4.8849 0.474047 3.71514 -0.00117977 2.44227 2.19967e-06C1.67819 0.000726631 0.952994 0.167117 0.300319 0.464934C0.135873 0.53997 0.0318604 0.705827 0.0318604 0.886553V18.5809C0.0318604 18.8123 0.219488 19 0.450963 19H1.67537V2.79124Z" fill="#BABABA"/>
</g>
<defs>
<clipPath id="clip0">
<rect width="19" height="19" fill="white"/>
</clipPath>
</defs>
</svg>
