<svg width="19" height="19" viewBox="0 0 19 19" fill="none" xmlns="http://www.w3.org/2000/svg">
<path d="M13.164 2.91346L8.84906 1.1875H8.1684L7.10812 2.67188H8.60938C8.68811 2.67188 8.76362 2.70315 8.8193 2.75883C8.87497 2.8145 8.90625 2.89001 8.90625 2.96875C8.90625 3.04749 8.87497 3.123 8.8193 3.17867C8.76362 3.23435 8.68811 3.26562 8.60938 3.26562H6.82812V3.5625C6.82821 3.64121 6.85952 3.71667 6.91518 3.77232C6.97083 3.82798 7.04629 3.85929 7.125 3.85938H10.2505C10.5263 3.85845 10.7969 3.93483 11.0316 4.07985C11.2662 4.22488 11.4556 4.43275 11.5781 4.6799L13.0311 7.58597C13.0545 7.63279 13.0652 7.68496 13.0619 7.7372C13.0586 7.78944 13.0416 7.8399 13.0126 7.88344C12.5673 8.55141 12.469 10.3472 12.4687 10.9837C12.4687 10.987 12.4868 12.025 13.2272 12.5186C13.2598 12.5402 13.2879 12.5679 13.3098 12.6003C13.3317 12.6328 13.347 12.6692 13.3547 12.7075C13.3625 12.7459 13.3626 12.7854 13.3551 12.8237C13.3475 12.8621 13.3325 12.8986 13.3108 12.9312C13.2891 12.9637 13.2612 12.9917 13.2286 13.0134C13.1961 13.0351 13.1596 13.0502 13.1212 13.0578C13.0828 13.0653 13.0433 13.0652 13.005 13.0575C12.9666 13.0498 12.9302 13.0345 12.8978 13.0126C12.0834 12.4697 11.9175 11.4862 11.8837 11.1238C11.6561 10.9279 10.9526 10.3906 10.0938 10.3906C9.00871 10.3906 8.18844 10.9291 8.18032 10.9345C8.13019 10.9679 8.07108 10.9853 8.01085 10.9843C7.95061 10.9834 7.89209 10.9641 7.84307 10.9291C7.82314 10.9149 5.81504 9.5 3.85938 9.5C2.85891 9.5 2.16121 9.71939 1.75208 9.90342C1.55201 9.99096 1.36259 10.1011 1.1875 10.2316V17.8125H4.54427L5.36268 15.6301C5.37965 15.5828 5.40841 15.5405 5.44625 15.5073C5.48409 15.4741 5.52976 15.4511 5.57895 15.4404C5.62726 15.43 5.67743 15.4321 5.7247 15.4465C5.77197 15.461 5.81477 15.4872 5.84903 15.5229C5.88985 15.5595 6.7846 16.3281 9.5 16.3281C10.5025 16.3281 12.2884 15.8643 14.3999 15.0556C16.2405 14.3505 17.5113 13.6976 17.7931 13.4612C17.476 9.49811 13.6482 3.64017 13.164 2.91346ZM8.66682 14.0188C8.65809 14.0275 8.64882 14.0357 8.63906 14.0433L7.30721 15.0782C7.27642 15.1022 7.24123 15.1198 7.20363 15.1301C7.16603 15.1404 7.12677 15.1433 7.08809 15.1384C7.0494 15.1336 7.01205 15.1211 6.97816 15.1019C6.94428 15.0826 6.91452 15.0568 6.8906 15.026C6.86667 14.9952 6.84905 14.96 6.83872 14.9224C6.8284 14.8848 6.82558 14.8456 6.83043 14.8069C6.83528 14.7682 6.8477 14.7309 6.86699 14.697C6.88627 14.6631 6.91205 14.6333 6.94283 14.6094L8.25903 13.5866C8.35878 13.4831 8.43196 13.357 8.47228 13.219C8.51259 13.0811 8.51885 12.9354 8.49051 12.7945L8.31829 11.9333C8.3104 11.895 8.31016 11.8555 8.31759 11.8171C8.32502 11.7786 8.33997 11.7421 8.36158 11.7095C8.38319 11.6768 8.41104 11.6488 8.44352 11.627C8.476 11.6052 8.51247 11.59 8.55084 11.5823C8.58921 11.5746 8.62871 11.5746 8.66709 11.5823C8.70546 11.5899 8.74194 11.6051 8.77444 11.6269C8.80693 11.6487 8.8348 11.6767 8.85643 11.7093C8.87807 11.7419 8.89304 11.7784 8.9005 11.8168L9.07276 12.678C9.12094 12.9177 9.10909 13.1655 9.03826 13.3994C8.96743 13.6333 8.83983 13.8461 8.66682 14.0188Z" fill="#696969"/>
</svg>
